<svg width="14" height="13" viewBox="0 0 14 13" fill="none" xmlns="http://www.w3.org/2000/svg">
<path d="M7.00005 12C6.57005 11.6187 6.08405 11.222 5.57005 10.8H5.56338C3.75338 9.32 1.70205 7.64533 0.796048 5.63867C0.498715 5 0.340715 4.30533 0.333382 3.6C0.332394 3.12132 0.427056 2.64727 0.61181 2.20568C0.796564 1.76409 1.06769 1.36387 1.40925 1.02851C1.75082 0.693154 2.15595 0.429422 2.60086 0.252801C3.04576 0.0761798 3.52147 -0.00976908 4.00005 9.05769e-07C4.78713 0.00124411 5.55727 0.228722 6.21872 0.655334C6.50936 0.84398 6.77233 1.07217 7.00005 1.33333C7.22938 1.07333 7.49205 0.845334 7.78205 0.655334C8.44321 0.228637 9.21316 0.00114661 10 9.05769e-07C10.4786 -0.00976908 10.9543 0.0761798 11.3992 0.252801C11.8441 0.429422 12.2493 0.693154 12.5908 1.02851C12.9324 1.36387 13.2035 1.76409 13.3883 2.20568C13.573 2.64727 13.6677 3.12132 13.6667 3.6C13.6599 4.30588 13.5022 5.00213 13.204 5.642C12.298 7.64867 10.2474 9.32267 8.43738 10.8L8.43072 10.8053C7.91605 11.2247 7.43072 11.6213 7.00072 12.0053L7.00005 12ZM4.00005 1.33333C3.37906 1.32556 2.7801 1.56323 2.33338 1.99467C2.12035 2.20392 1.95156 2.45386 1.83703 2.72964C1.72251 3.00541 1.66459 3.3014 1.66672 3.6C1.67405 4.11333 1.79072 4.62 2.00805 5.08533C2.43573 5.95113 3.0128 6.73469 3.71271 7.4C4.37338 8.06667 5.13338 8.712 5.79072 9.25467C5.97271 9.40467 6.15805 9.556 6.34338 9.70733L6.46005 9.80267C6.63805 9.948 6.82205 10.0987 7.00005 10.2467L7.00871 10.2387L7.01272 10.2353H7.01672L7.02272 10.2307H7.02938L7.04138 10.2207L7.06872 10.1987L7.07338 10.1947L7.08072 10.1893H7.08471L7.09071 10.184L7.53338 9.82067L7.64938 9.72533C7.83672 9.57267 8.02205 9.42133 8.20405 9.27133C8.86138 8.72867 9.62205 8.084 10.2827 7.414C10.9828 6.74906 11.5598 5.96569 11.9874 5.1C12.2087 4.63067 12.3274 4.11867 12.334 3.6C12.3353 3.30225 12.2769 3.00726 12.1623 2.73246C12.0477 2.45765 11.8792 2.20859 11.6667 2C11.2209 1.56661 10.6218 1.32699 10 1.33333C9.62494 1.33015 9.2534 1.40637 8.90985 1.55701C8.5663 1.70764 8.25851 1.92927 8.00672 2.20733L7.00005 3.36733L5.99338 2.20733C5.74159 1.92927 5.4338 1.70764 5.09025 1.55701C4.7467 1.40637 4.37516 1.33015 4.00005 1.33333Z" fill="white"/>
</svg>
